<svg xmlns="http://www.w3.org/2000/svg" viewBox="0 0 512 512" width="512" height="512">
  <defs>
    <linearGradient id="grad" x1="0%" y1="0%" x2="100%" y2="100%">
      <stop offset="0%" style="stop-color:#667eea;stop-opacity:1" />
      <stop offset="100%" style="stop-color:#764ba2;stop-opacity:1" />
    </linearGradient>
  </defs>
  <rect width="512" height="512" rx="80" fill="url(#grad)"/>
  <g fill="white">
    <!-- Musical note -->
    <circle cx="200" cy="360" r="50"/>
    <circle cx="312" cy="340" r="50"/>
    <rect x="240" y="180" width="30" height="180" rx="5"/>
    <rect x="352" y="160" width="30" height="180" rx="5"/>
    <path d="M 240 180 Q 240 120 380 140 L 380 160 Q 270 145 270 180 Z"/>
    
    <!-- Sound waves -->
    <path d="M 100 200 Q 120 180 140 200 T 180 200" stroke="white" stroke-width="15" fill="none" stroke-linecap="round" opacity="0.8"/>
    <path d="M 100 256 Q 120 236 140 256 T 180 256" stroke="white" stroke-width="15" fill="none" stroke-linecap="round" opacity="0.8"/>
    <path d="M 100 312 Q 120 292 140 312 T 180 312" stroke="white" stroke-width="15" fill="none" stroke-linecap="round" opacity="0.8"/>
  </g>
</svg>
